<svg xmlns="http://www.w3.org/2000/svg" width="1624" height="2724.617" viewBox="147 1478 1624 2724.617"><g data-name="CompositeLayer"><path d="M5 0h470a5 5 0 0 1 5 5v323a5 5 0 0 1-5 5H5a5 5 0 0 1-5-5V5a5 5 0 0 1 5-5z" stroke-linejoin="round" stroke-linecap="round" stroke="rgba(0,120,165,0.2 )" fill="transparent" transform="matrix(.99792 0 0 .997 1218.5 1478.715)" data-name="portrait-beautiful-mother-with-her-baby"/><path d="M5 0h466a5 5 0 0 1 5 5v323a5 5 0 0 1-5 5H5a5 5 0 0 1-5-5V5a5 5 0 0 1 5-5z" stroke-linejoin="round" stroke-linecap="round" stroke="rgba(0,120,165,0.2 )" fill="transparent" transform="matrix(.9979 0 0 .997 222.5 1478.715)" data-name="portrait-beautiful-nurse"/><path d="M5 0h469a5 5 0 0 1 5 5v323a5 5 0 0 1-5 5H5a5 5 0 0 1-5-5V5a5 5 0 0 1 5-5z" stroke-linejoin="round" stroke-linecap="round" stroke="rgba(0,120,165,0.2 )" fill="transparent" transform="matrix(.99791 0 0 .997 721.5 1478.715)" data-name="medium-shot-friends-running-together"/><path d="M5 0h712a5 5 0 0 1 5 5v544a5 5 0 0 1-5 5H5a5 5 0 0 1-5-5V5a5 5 0 0 1 5-5z" fill-rule="evenodd" fill="url(&quot;#a&quot;)" transform="translate(222 1947.215)" data-name="Rectangle 644"/><path d="M360.5 3144.113h1200" stroke-linejoin="round" stroke-linecap="round" stroke="#d1d1d1" fill="transparent" data-name="Ligne 36"/><path d="M526.837 3805.713h1.604c5.04 0 10.103.025 15.152-.014 1.805-.013 2.978.733 3.693 2.39 2.227 5.115 4.531 10.199 6.733 15.326.318.8.437 1.664.346 2.52-.72 7.028-1.533 14.048-2.266 21.076-.312 2.978-1.315 3.947-4.328 3.947-1.548 0-3.097.03-4.646-.013-.623-.019-.916.171-1.207.751-1.473 2.994-3.867 4.889-7.152 5.521-4.29.83-8.085-1.39-9.59-5.512-.08-.229-.16-.44-.275-.747h-.969c-7.578 0-15.154 0-22.73-.016-.687 0-1.038.197-1.356.841-2.42 4.92-8.289 7.03-12.767 4.616-2.163-1.166-3.471-3.024-4.186-5.432h-8.966c-1.375 0-2.424-.536-3.077-1.74a3.207 3.207 0 0 1 2.671-4.713c1.109-.06 2.222 0 3.333-.02 1.89-.037 3.306-1.437 3.304-3.235-.002-1.799-1.425-3.208-3.315-3.22-2.062-.022-4.11 0-6.163 0-1.983-.013-3.436-1.374-3.436-3.206-.02-1.883 1.427-3.263 3.47-3.263h25.359c2.52 0 4.185-2.252 3.253-4.426-.591-1.374-1.684-2.038-3.191-2.036-4.209 0-8.42.023-12.628 0-2.568-.016-4.123-2.568-2.94-4.747.663-1.21 1.73-1.716 3.094-1.714 5.59.011 11.18.011 16.769 0h5.152c2.218 0 3.7-1.321 3.682-3.264-.019-1.904-1.487-3.207-3.645-3.207H474.4c-.47.021-.94-.008-1.404-.087a3.221 3.221 0 0 1 .776-6.367c6.33-.016 12.66 0 18.992 0 1.145 0 2.29.014 3.436 0 1.954-.027 3.39-1.434 3.365-3.273-.023-1.796-1.448-3.176-3.354-3.182-5.287-.014-10.574 0-15.86-.012-2.419 0-4.004-2.156-3.207-4.314.48-1.292 1.448-1.986 2.807-2.133a8.61 8.61 0 0 1 .916 0h43.138c2.875 0 4.135 1.375 3.83 4.243-.305 2.868-.657 5.656-.999 8.662Zm20.918 22.62c.048-1.063.429-2.192.083-3.019-1.769-4.243-3.716-8.41-5.629-12.6a1.003 1.003 0 0 0-.722-.504c-2.387-.032-4.774-.066-7.16 0a3.077 3.077 0 0 0-3.057 2.816c-.399 3.27-.762 6.542-1.09 9.818a3.109 3.109 0 0 0 3.026 3.455c4.774.069 9.546.034 14.552.034Zm-58.718 20.19c0 1.491.983 2.566 2.204 2.424 2.167-.248 3.844-2.75 3.244-4.845-.38-1.315-1.427-1.856-2.724-1.41a3.982 3.982 0 0 0-2.724 3.831Zm42.03 0c0 1.537 1.032 2.62 2.29 2.42 2.087-.335 3.62-2.56 3.191-4.63-.307-1.48-1.438-2.108-2.854-1.588a3.995 3.995 0 0 0-2.628 3.791Z" fill="#0078a5" fill-rule="evenodd" data-name="Tracé 40"/><path d="M890.764 3824.995h-5.454c-.211 10.471-3.835 19.502-11.141 26.966-5.097 5.207-11.205 8.779-18.327 10.35-14.875 3.285-27.41-1.038-37.92-11.993l6.33-9.502c9.508 11.193 21.047 15.035 34.664 8.705 10.08-4.69 14.861-13.335 15.461-24.512h-5.566l10.955-16.438c.242.344.437.605.618.875 3.253 4.868 6.503 9.733 9.75 14.596.186.277.42.52.63.779v.174Z" fill="#0078a5" fill-rule="evenodd" data-name="Tracé 42"/><path d="m875.79 3799.687-6.329 9.5c-9.342-11.09-20.691-14.842-34.228-8.952-10.513 4.582-15.874 15.076-15.768 24.72h5.475l-10.996 16.495L803 3825.043h5.418c.213-10.7 3.952-19.853 11.489-27.36 5.4-5.38 11.867-8.935 19.36-10.31 14.396-2.668 26.485 1.719 36.524 12.314Z" fill="#0078a5" fill-rule="evenodd" data-name="Tracé 43"/><path d="M468.839 3825.103c-.573 0-1.146.023-1.716 0a3.246 3.246 0 0 1-3.123-3.207 3.207 3.207 0 0 1 3.088-3.232 43.262 43.262 0 0 1 3.533 0 3.223 3.223 0 0 1 .034 6.437c-.605.032-1.212 0-1.816.002Z" fill="#0078a5" fill-rule="evenodd" data-name="Tracé 41"/><path d="M1148.787 3868.904c-.89-.367-1.785-.72-2.667-1.102-15.748-6.833-25.46-18.635-29.136-35.406-.655-3.017-.866-6.185-.916-9.273-.121-8.458-.044-16.919-.041-25.379 0-1.895.999-2.891 2.902-2.925 10.607-.197 19.684-4.023 27.23-11.478.458-.442.884-.896 1.336-1.333 1.246-1.21 2.646-1.173 3.947-.014 2.259 2.011 4.423 4.163 6.872 5.92 5.64 4.05 12.016 6.24 18.95 6.76.995.076 1.996.108 2.995.147 1.567.06 2.641 1.102 2.644 2.664 0 9.118.396 18.256-.103 27.347-1.05 19.103-10.36 33.071-27.4 41.82-1.688.868-3.493 1.507-5.246 2.252h-1.367Zm.687-20.923c12.777 0 23.14-10.356 23.147-23.136.006-12.782-10.345-23.149-23.124-23.163-12.78-.014-23.153 10.33-23.175 23.11 0 12.791 10.36 23.168 23.152 23.189Z" fill="#0078a5" fill-rule="evenodd" data-name="Tracé 44"/><path d="M1149.515 3806.827c9.946.024 17.989 8.11 17.96 18.056-.028 9.946-8.116 17.985-18.062 17.953-9.947-.033-17.982-8.125-17.946-18.07.05-9.93 8.12-17.949 18.048-17.939Zm-3.521 22.948-4.83-4.888c-.71-.718-1.546-1.08-2.556-.834-2.018.488-2.662 2.85-1.166 4.38 2.135 2.188 4.314 4.332 6.476 6.49 1.42 1.416 2.82 1.418 4.243 0a1281.96 1281.96 0 0 0 5.576-5.574c2.542-2.54 5.087-5.082 7.638-7.626.733-.733 1.145-1.579.873-2.628-.516-2.048-2.882-2.634-4.451-1.077a2893.83 2893.83 0 0 0-11.031 11.022c-.213.218-.442.426-.772.735Z" fill="#0078a5" fill-rule="evenodd" data-name="Tracé 45"/><path d="M1437.338 3781.115c1.787.341 3.608.563 5.356 1.047 11.565 3.207 19.702 13.832 19.846 25.839.037 3.225 0 6.451 0 9.697l-11.743-2.062c0-.229-.037-.531-.037-.833 0-2.115.019-4.227 0-6.342-.093-7.947-5.498-14.169-13.349-15.408-8.066-1.272-16.221 4.602-17.35 12.687-.367 2.639-.196 5.356-.264 8.036-.016.626 0 1.249 0 1.865l-11.707 2.046s-.057-.046-.057-.09c.098-4.76-.54-9.57.483-14.272 2.48-11.363 9.46-18.506 20.676-21.502 1.315-.35 2.687-.479 4.032-.71l4.114.002Z" fill="#0078a5" fill-rule="evenodd" data-name="Tracé 46"/><path d="M1469.541 3844.415c0 6.174-.013 12.345.02 18.52 0 .712-.228.978-.886 1.165a126.237 126.237 0 0 1-23.193 4.332c-14.804 1.357-29.298-.302-43.566-4.327-.703-.197-.916-.488-.916-1.221.026-12.317.026-24.635 0-36.952 0-.784.259-1.066.971-1.27 11.865-3.394 23.958-5.071 36.297-4.75a121.318 121.318 0 0 1 30.47 4.78c.62.179.838.459.835 1.118-.043 6.202-.032 12.403-.032 18.605Zm-31.685 11.04v-8.371c4.737-1.833 6.288-6.092 5.629-9.595-.706-3.745-3.945-6.526-7.909-6.756-3.622-.213-7.124 2.257-8.263 5.845a8.05 8.05 0 0 0 .122 5.376c.943 2.52 2.778 4.177 5.269 5.111v8.387l5.152.003Z" fill="#0078a5" fill-rule="evenodd" data-name="Tracé 47"/><path d="M1435.306 3842.307a3.221 3.221 0 1 1 3.191-3.25 3.267 3.267 0 0 1-3.191 3.25Z" fill="#0078a5" fill-rule="evenodd" data-name="Tracé 48"/><path d="M147 4000.613h1624v202H147v-202z" fill="#f9f9f9" fill-rule="evenodd" data-name="Rectangle 148"/></g><defs><linearGradient x1=".521" y1=".724" x2=".522" y2="-.018" id="a"><stop stop-color="#0078a5" offset="0"/><stop stop-color="rgba(0,105,146,0 )" offset="1"/></linearGradient></defs></svg>