<svg xmlns="http://www.w3.org/2000/svg" width="108.467" height="35.7" viewBox="221.983 12.15 108.467 35.7"><g data-name="logo health"><path d="m263.15 12.275-15.757-.054c-6.378-.022-12.845-.632-18.29 3.424-8.258 6.16-9.517 18.239-2.711 25.976 3.31 3.763 8.156 5.842 13.138 5.916 1.753.026 3.509.012 5.264.018l18.308.063c.525.02 1.03-.198 1.375-.595.343-.342.53-.81.515-1.294l.042-27.587v-3.985a1.916 1.916 0 0 0-1.883-1.882Zm-30.459 29.66c-8.078-4.642-9.306-16.025-2.479-22.33 2.667-2.462 6.126-3.63 9.72-3.632 2.124 0 4.247.015 6.37.022l14.956.051c-.01 8.574-.023 17.142-.039 25.704v2.088l-12.654-.043c-5.136-.018-11.25.8-15.874-1.86Z" fill="#0078a5" fill-rule="evenodd" data-name="Tracé 31"/><path d="m254.498 27.347-5.99-.02h-.561l.015-4.37c0-.727.003-1.455.008-2.183a.456.456 0 0 0-.448-.451l-3.722-.013a.457.457 0 0 0-.452.448l-.02 5.99v.56l-4.37-.014h-2.184a.457.457 0 0 0-.45.447l-.013 3.723c0 .248.2.45.448.45l5.99.023h.561c0 1.456-.005 2.912-.016 4.368v2.184c.003.247.201.448.448.453l3.723.012a.423.423 0 0 0 .312-.128.416.416 0 0 0 .136-.312l.02-5.99v-.56l4.368.013 2.185.008a.454.454 0 0 0 .45-.448c0-1.24.005-2.482.013-3.722a.454.454 0 0 0-.451-.468Z" fill="#0078a5" fill-rule="evenodd" data-name="Tracé 32"/><path d="m296.24 26.694-1.174 3.737h2.42l-1.21-3.737h-.035Z" fill="#0078a5" fill-rule="evenodd" data-name="Tracé 33"/><path d="M329.578 23.28a16.241 16.241 0 0 0-7.02-8.644c-3.558-2.099-7.333-2.203-11.298-2.217l-13.874-.05c-8.921-.03-17.857-.215-26.778-.09h-.52a1.916 1.916 0 0 0-1.89 1.887l-.09 27.587-.015 3.983c-.02.53.202 1.038.604 1.383.34.337.804.522 1.283.51l23.23.08 15.254.05c2.842.012 5.814.233 8.633-.211 7.727-1.222 13.21-8.138 13.322-15.819.04-2.846.114-5.723-.84-8.448Zm-45.524 2.88h-1.067v7.828h1.067v.89h-3.203v-.89h1.067V30.43h-4.804v3.56h1.069v.889h-3.203v-.89h1.067V26.16h-1.067v-.889h3.203v.89h-1.069v3.38h4.804v-3.38h-1.067v-.89h3.203v.89Zm7.472 8.718h-6.405v-.89h1.067V26.16h-1.067v-.889h6.233v2.134h-.936v-1.248h-3.163v3.381h1.78v-.89h.89v2.85h-.89v-1.068h-1.78v3.56h3.328V32.74h.936l.007 2.138Zm9.074 0h-2.85v-.89h.89l-.87-2.67h-2.965l-.836 2.67h.936v.89h-2.846v-.89h.89l2.864-8.807h1.033l2.917 8.807h.837v.89Zm6.582 0h-6.049v-.89h1.067V26.16h-1.067v-.889h3.203v.89h-1.068v7.828h2.964V32.74h.936l.014 2.138Zm6.46-7.296h-.945V26.16h-1.956v7.83h1.248v.889h-3.562v-.89h1.248V26.16h-1.96v1.423h-.936V25.27h6.865l-.003 2.312Zm9.908-1.423h-1.067v7.83h1.067v.889h-3.202v-.89h1.067V30.43h-4.803v3.56h1.067v.889h-3.202v-.89h1.068V26.16h-1.068v-.889h3.202v.89h-1.067v3.38h4.803v-3.38h-1.067v-.89h3.202v.89Z" fill="#0078a5" fill-rule="evenodd" data-name="Tracé 34"/></g></svg>