<?xml version="1.0" encoding="UTF-8" standalone="no"?>
<!-- Created with Inkscape (http://www.inkscape.org/) -->

<svg
   width="36.367744mm"
   height="17.38048mm"
   viewBox="0 0 36.367744 17.380479"
   version="1.1"
   id="svg1"
   inkscape:version="1.3.2 (091e20ef0f, 2023-11-25)"
   sodipodi:docname="moln.svg"
   xmlns:inkscape="http://www.inkscape.org/namespaces/inkscape"
   xmlns:sodipodi="http://sodipodi.sourceforge.net/DTD/sodipodi-0.dtd"
   xmlns="http://www.w3.org/2000/svg"
   xmlns:svg="http://www.w3.org/2000/svg">
  <sodipodi:namedview
     id="namedview1"
     pagecolor="#ffffff"
     bordercolor="#000000"
     borderopacity="0.25"
     inkscape:showpageshadow="2"
     inkscape:pageopacity="0.0"
     inkscape:pagecheckerboard="0"
     inkscape:deskcolor="#d1d1d1"
     inkscape:document-units="mm"
     inkscape:zoom="0.44186308"
     inkscape:cx="-64.499619"
     inkscape:cy="-133.52553"
     inkscape:window-width="1366"
     inkscape:window-height="700"
     inkscape:window-x="0"
     inkscape:window-y="0"
     inkscape:window-maximized="1"
     inkscape:current-layer="layer1" />
  <defs
     id="defs1">
    <clipPath
       id="w">
      <path
         d="m 5,0 h 199 a 5,5 0 0 1 5,5 v 136 a 5,5 0 0 1 -5,5 H 5 A 5,5 0 0 1 0,141 V 5 A 5,5 0 0 1 5,0 Z"
         data-name="Rectangle 116"
         transform="translate(0.346,0.499)"
         id="path284" />
    </clipPath>
    <pattern
       patternUnits="userSpaceOnUse"
       width="149.799"
       height="51.001967"
       patternTransform="translate(321.99998,535.99999)"
       preserveAspectRatio="xMidYMid"
       id="pattern1"
       style="fill:#000000">
      <g
         data-name="Groupe de masques 8"
         transform="translate(-29.757,-47.941999)"
         clip-path="url(#w)"
         id="g216">
        <g
           data-name="Ebene 2"
           id="g215">
          <g
             data-name="Ebene 1"
             id="g214">
            <path
               d="m 168.518,95.34 a 1.995,1.995 0 0 1 2.1,-1.76 c 1.174,0 1.96,0.586 2.007,1.76 z m 4.694,2.53 -0.663,-0.588 a 2.588,2.588 0 0 1 -1.89,0.746 2.036,2.036 0 0 1 -2.147,-1.855 h 5.04 c 0.23,-2.347 -1.173,-3.444 -2.963,-3.444 a 3.11,3.11 0 0 0 0.047,6.214 c 0.967,0.023 1.9,-0.365 2.564,-1.068 z m -11.684,-5.024 h -0.91 v 5.939 h 0.987 v -3.31 a 1.696,1.696 0 0 1 1.76,-1.76 c 0.371,-0.015 0.736,0.1 1.033,0.322 l 0.446,-0.833 a 2.26,2.26 0 0 0 -1.385,-0.446 1.942,1.942 0 0 0 -1.842,0.956 l -0.07,-0.891 z m -6.349,-1.725 -0.986,0.111 v 1.59 h -1.173 v 0.851 h 1.173 v 3.17 c 0,1.302 0.587,2.07 1.866,2.024 0.408,-0.01 0.808,-0.109 1.174,-0.288 l -0.288,-0.81 c -0.255,0.13 -0.535,0.204 -0.821,0.218 -0.722,0 -0.94,-0.435 -0.94,-1.174 v -3.169 h 1.844 v -0.821 h -1.831 z m -10.38,4.219 a 2.001,2.001 0 0 1 2.106,-1.76 c 1.173,0 1.954,0.586 2,1.76 h -4.107 z m 4.694,2.53 -0.67,-0.588 c -0.5,0.496 -1.18,0.765 -1.883,0.746 a 2.048,2.048 0 0 1 -2.154,-1.855 h 5.047 c 0.229,-2.347 -1.174,-3.444 -2.963,-3.444 a 3.11,3.11 0 0 0 0.047,6.214 3.427,3.427 0 0 0 2.564,-1.068 z m -4.578,-5.963 v 0.094 h 1.033 l 1.033,-0.95 1.039,0.95 h 1.02 v -0.094 l -1.76,-1.602 h -0.628 z m -9.125,3.902 h 4.308 v -0.92 h -4.308 z m -9.424,2.976 h 0.968 v -3.18 a 1.83,1.83 0 0 1 1.79,-1.967 c 1.144,0 1.714,0.675 1.714,1.878 v 3.269 h 1.026 v -3.28 c 0,-1.802 -1.032,-2.782 -2.517,-2.782 a 2.242,2.242 0 0 0 -1.995,1.062 l -0.053,-0.95 h -0.892 z m -8.885,-3.445 a 2.001,2.001 0 0 1 2.107,-1.76 c 1.174,0 1.96,0.586 2.001,1.76 z m 4.695,2.53 -0.663,-0.588 a 2.6,2.6 0 0 1 -1.89,0.746 2.048,2.048 0 0 1 -2.153,-1.855 h 5.046 c 0.23,-2.347 -1.173,-3.444 -2.963,-3.444 a 3.11,3.11 0 0 0 0.047,6.214 c 0.967,0.023 1.899,-0.365 2.564,-1.068 z m -10.446,0.915 h 0.98 v -5.962 h -0.98 z m -0.152,-7.746 a 0.657,0.657 0 0 0 1.309,0 0.634,0.634 0 0 0 -0.658,-0.652 0.622,0.622 0 0 0 -0.651,0.64 m -6.702,2.635 a 1.99,1.99 0 0 1 2.078,2.147 2.013,2.013 0 0 1 -2.078,2.154 2.16,2.16 0 0 1 0,-4.301 m -2.042,-3.298 h -0.98 v 8.42 h 0.94 l 0.04,-1.073 a 2.347,2.347 0 0 0 2.095,1.214 2.934,2.934 0 0 0 3.022,-3.104 2.87,2.87 0 0 0 -3.01,-3.098 2.347,2.347 0 0 0 -2.107,1.209 z m -11.942,0.745 -0.986,0.111 v 1.59 h -1.173 v 0.852 h 1.173 v 3.169 c 0,1.302 0.587,2.071 1.867,2.024 a 2.87,2.87 0 0 0 1.173,-0.287 l -0.287,-0.81 a 2.066,2.066 0 0 1 -0.822,0.217 c -0.722,0 -0.939,-0.434 -0.939,-1.174 v -3.169 h 1.843 v -0.81 H 90.91 Z M 80.541,95.34 a 1.995,1.995 0 0 1 2.106,-1.76 c 1.174,0 1.955,0.586 2.001,1.76 z m 4.694,2.53 -0.663,-0.588 c -0.5,0.496 -1.18,0.765 -1.884,0.746 a 2.048,2.048 0 0 1 -2.153,-1.855 h 5.047 c 0.228,-2.347 -1.174,-3.444 -2.935,-3.444 a 3.11,3.11 0 0 0 0.047,6.214 3.427,3.427 0 0 0 2.565,-1.068 z M 65.77,95.34 a 1.995,1.995 0 0 1 2.101,-1.76 c 1.174,0 1.96,0.586 2.007,1.76 z m 4.695,2.53 -0.663,-0.588 a 2.588,2.588 0 0 1 -1.902,0.74 2.036,2.036 0 0 1 -2.147,-1.855 h 5.082 C 71.063,93.82 69.661,92.723 67.9,92.723 a 3.11,3.11 0 0 0 0,6.214 c 0.968,0.023 1.9,-0.365 2.565,-1.068 z M 67.22,91.819 v 0.053 h 0.903 l 1.203,-1.555 h -1.214 z m -7.506,-0.698 -0.986,0.111 v 1.59 h -1.173 v 0.851 h 1.173 v 3.17 c 0,1.302 0.587,2.07 1.866,2.024 0.408,-0.01 0.808,-0.109 1.174,-0.288 l -0.323,-0.81 c -0.255,0.13 -0.535,0.204 -0.821,0.218 -0.722,0 -0.94,-0.435 -0.94,-1.174 v -3.169 h 1.844 V 92.823 H 59.714 V 91.12 Z m -11.02,7.664 h 0.974 v -3.18 a 1.83,1.83 0 0 1 1.76,-1.967 c 1.174,0 1.72,0.675 1.72,1.878 v 3.269 h 0.98 v -3.28 c 0,-1.802 -1.027,-2.782 -2.518,-2.782 a 2.242,2.242 0 0 0 -1.99,1.062 l -0.058,-0.95 h -0.868 z m -7.4,-5.123 c 2.87,0 2.858,4.372 0,4.372 a 2.09,2.09 0 0 1 -2.148,-2.178 2.054,2.054 0 0 1 2.13,-2.194 m 3.151,5.123 v -5.939 h -0.962 v 1.086 a 2.347,2.347 0 0 0 -2.195,-1.21 2.934,2.934 0 0 0 -3.057,3.1 2.934,2.934 0 0 0 3.046,3.115 2.535,2.535 0 0 0 2.183,-1.203 v 1.05 h 0.985 z M 34.07,94.16 34.657,93.51 a 3.175,3.175 0 0 0 -2.254,-0.787 c -1.173,0 -2.406,0.47 -2.406,1.76 0,1.291 1.227,1.579 2.348,1.708 0.915,0.1 1.602,0.317 1.602,0.95 0,0.634 -0.851,0.893 -1.503,0.893 -0.8,0.031 -1.573,-0.301 -2.1,-0.904 l -0.587,0.692 a 3.157,3.157 0 0 0 2.652,1.086 c 1.344,0 2.453,-0.552 2.488,-1.76 0.03,-1.462 -1.42,-1.673 -2.5,-1.808 -0.727,-0.1 -1.467,-0.252 -1.467,-0.88 0,-0.628 0.64,-0.869 1.462,-0.869 a 2.3,2.3 0 0 1 1.672,0.587 z"
               fill="#4a4a49"
               fill-rule="evenodd"
               data-name="Tracé 38"
               id="path213" />
            <path
               d="m 179.556,65.118 v -6.613 c -7.294,0 -12.863,4.783 -12.863,12.212 v 15.897 h 6.871 V 71.063 c 0,-3.808 2.277,-5.945 5.992,-5.945 m -15.657,10.728 c 0.164,-1.03 0.258,-2.069 0.282,-3.11 0,-8.404 -5.868,-14.49 -14.301,-14.49 -8.433,0 -14.583,6.04 -14.583,14.583 0,8.545 6.315,14.577 15.094,14.577 4.876,0 9.054,-1.625 11.883,-4.366 l -3.715,-4.548 a 12.259,12.259 0 0 1 -8.168,2.74 c -4.108,0 -7.101,-2.041 -8.216,-5.386 z m -6.214,-5.247 h -15.739 c 0.833,-3.837 3.85,-6.267 7.934,-6.267 4.225,0 7.1,2.271 7.799,6.267 m -23.133,-5.48 v -6.614 c -7.288,0 -12.857,4.783 -12.857,12.212 v 15.897 h 6.872 V 71.063 c 0,-3.808 2.27,-5.945 5.985,-5.945 m -16.255,10.03 v -15.88 h -6.872 v 15.557 c 0,3.808 -2.27,5.938 -5.985,5.938 -3.715,0 -5.992,-2.13 -5.992,-5.938 V 59.268 h -6.895 v 15.88 c 0,7.417 5.593,12.211 12.91,12.211 7.318,0 12.834,-4.794 12.834,-12.212 m -28.46,0.699 c 0.163,-1.03 0.257,-2.069 0.28,-3.11 0,-8.404 -5.867,-14.49 -14.3,-14.49 -8.433,0 -14.583,6.087 -14.583,14.584 0,8.498 6.315,14.577 15.093,14.577 4.877,0 9.055,-1.625 11.884,-4.366 L 84.49,78.493 a 12.259,12.259 0 0 1 -8.169,2.74 c -4.107,0 -7.1,-2.041 -8.215,-5.386 H 89.83 Z M 83.61,70.599 H 67.9 c 0.84,-3.837 3.85,-6.267 7.934,-6.267 4.225,0 7.1,2.271 7.8,6.267 M 55.74,82.336 c 3.099,-3.521 4.108,-8.802 2.817,-13.609 -1.62,-5.357 -6.379,-9.712 -11.971,-10.298 -3.756,-0.34 -7.3,0.41 -10.029,2.617 V 47.942 H 29.844 V 71.85 c 0.03,3.087 0.499,5.505 1.76,7.852 2.694,5.1 8.11,8.004 14.084,7.682 a 15.257,15.257 0 0 0 10.035,-5.065 m -4.577,-4.694 a 8.433,8.433 0 0 1 -8.445,3.145 8.245,8.245 0 0 1 -5.985,-6.631 8.157,8.157 0 0 1 3.697,-8.216 8.216,8.216 0 0 1 8.62,0.176 8.315,8.315 0 0 1 2.817,3.316 8.42,8.42 0 0 1 -0.704,8.216"
               fill="#c71553"
               fill-rule="evenodd"
               data-name="Tracé 39"
               id="path214" />
          </g>
        </g>
      </g>
    </pattern>
    <clipPath
       id="z">
      <path
         d="m 5,0 h 200 a 5,5 0 0 1 5,5 v 136 a 5,5 0 0 1 -5,5 H 5 A 5,5 0 0 1 0,141 V 5 A 5,5 0 0 1 5,0 Z"
         data-name="Rectangle 115"
         transform="translate(0.191,0.499)"
         id="path285" />
    </clipPath>
  </defs>
  <g
     inkscape:label="Layer 1"
     inkscape:groupmode="layer"
     id="layer1"
     transform="translate(-122.13984,-183.50919)">
    <g
       data-name="Groupe de masques 9"
       transform="matrix(0.26458333,0,0,0.26458333,112.4717,172.76764)"
       clip-path="url(#z)"
       id="g221">
      <path
         d="m 77.696,50.67 c -5.252,0 -9.557,4.263 -9.557,9.558 a 9.535,9.535 0 0 0 9.557,9.556 9.535,9.535 0 0 0 9.556,-9.556 c 0,-5.295 -4.304,-9.557 -9.556,-9.557 z M 64.35,55.19 a 7.266,7.266 0 0 0 7.275,-7.274 c 0,-4.004 -3.271,-7.318 -7.275,-7.318 -4.003,0 -7.318,3.271 -7.318,7.275 0,4.003 3.272,7.318 7.318,7.318 z m -9.729,-2.711 a 5.88,5.88 0 0 0 -5.897,5.897 c 0,3.272 2.626,5.941 5.897,5.941 a 5.88,5.88 0 0 0 5.898,-5.897 c 0,-3.272 -2.67,-5.941 -5.898,-5.941 z m -8.394,2.712 a 4.52,4.52 0 1 0 0,-9.04 4.52,4.52 0 0 0 -4.52,4.52 c 0.043,2.497 2.023,4.52 4.52,4.52 z M 40.2,60.959 a 3.656,3.656 0 0 0 3.66,-3.659 3.656,3.656 0 0 0 -3.66,-3.659 3.656,3.656 0 0 0 -3.659,3.66 3.656,3.656 0 0 0 3.66,3.658 z m 26.647,22.342 c -2.239,0 -3.788,0.818 -4.864,1.894 -1.55,1.55 -1.938,3.573 -1.938,6.242 0,2.712 0.388,4.692 1.938,6.285 1.076,1.076 2.668,1.894 4.864,1.894 2.238,0 3.831,-0.818 4.907,-1.894 1.55,-1.55 1.937,-3.573 1.937,-6.285 0,-2.669 -0.387,-4.692 -1.937,-6.242 -1.076,-1.076 -2.712,-1.894 -4.907,-1.894 z m 2.368,12.398 c -0.603,0.602 -1.421,0.947 -2.368,0.947 -0.947,0 -1.765,-0.345 -2.368,-0.904 -0.99,-0.947 -1.119,-2.583 -1.119,-4.305 0,-1.679 0.13,-3.315 1.12,-4.305 0.602,-0.602 1.377,-0.904 2.367,-0.904 0.947,0 1.765,0.302 2.368,0.904 0.99,0.947 1.119,2.583 1.119,4.305 0,1.679 -0.13,3.315 -1.12,4.262 z M 56.86,76.672 h -1.335 a 3.288,3.288 0 0 0 -2.927,1.765 L 46.788,89.8 40.933,78.436 a 3.288,3.288 0 0 0 -2.927,-1.765 h -1.334 c -0.044,0 -0.13,0.086 -0.13,0.172 v 22.428 c 0,0.086 0.086,0.172 0.173,0.172 H 39.9 a 0.185,0.185 0 0 0 0.172,-0.172 V 84.377 l 5.424,10.633 c 0.043,0.043 0.086,0.086 0.13,0.086 h 2.324 c 0.043,0 0.13,-0.043 0.13,-0.086 l 5.423,-10.633 v 14.895 c 0,0.086 0.086,0.172 0.172,0.172 h 3.186 a 0.185,0.185 0 0 0 0.172,-0.172 V 76.844 C 56.99,76.758 56.947,76.672 56.861,76.672 Z m 5.123,0.775 a 0.185,0.185 0 0 0 -0.173,0.172 v 3.185 c 0,0.086 0.086,0.172 0.173,0.172 h 2.668 a 0.185,0.185 0 0 0 0.173,-0.172 V 77.62 a 0.185,0.185 0 0 0 -0.173,-0.172 h -2.668 z m 9.685,3.486 A 0.185,0.185 0 0 0 71.84,80.761 V 77.576 A 0.185,0.185 0 0 0 71.668,77.404 H 69 a 0.185,0.185 0 0 0 -0.172,0.172 v 3.185 c 0,0.086 0.086,0.172 0.172,0.172 h 2.67 z m 60.827,2.368 c -3.703,0 -7.319,2.195 -7.319,8.136 0,5.94 3.66,8.136 7.319,8.136 1.85,0 3.271,-0.43 4.563,-1.507 0.086,-0.043 0.086,-0.172 0,-0.215 l -1.894,-2.023 c -0.044,-0.043 -0.13,-0.043 -0.216,0 -0.732,0.603 -1.463,0.86 -2.453,0.86 -1.249,0 -2.325,-0.516 -3.057,-1.42 -0.732,-0.86 -0.99,-2.023 -0.99,-3.874 0,-1.851 0.258,-2.97 0.947,-3.874 0.732,-0.904 1.765,-1.42 3.057,-1.42 1.033,0 1.721,0.257 2.496,0.903 0.043,0.043 0.13,0.043 0.216,0 l 2.023,-1.937 c 0.086,-0.043 0.043,-0.172 0,-0.215 -1.292,-1.076 -2.755,-1.55 -4.692,-1.55 z m 16.142,6.156 c -0.043,-0.043 -0.086,-0.13 -0.043,-0.172 l 4.52,-5.338 c 0.086,-0.086 0,-0.259 -0.129,-0.259 h -3.874 c -0.043,0 -0.086,0 -0.13,0.044 l -5.552,6.543 v -10.46 c 0,-1.723 -1.378,-3.143 -3.1,-3.143 a 0.185,0.185 0 0 0 -0.172,0.172 v 22.428 c 0,0.086 0.086,0.172 0.172,0.172 h 2.97 a 0.185,0.185 0 0 0 0.173,-0.172 v -3.875 c 0,-0.043 0,-0.086 0.043,-0.086 l 2.712,-3.185 c 0.086,-0.086 0.172,-0.086 0.258,0 l 4.477,7.189 c 0.043,0.043 0.086,0.086 0.13,0.086 h 3.486 c 0.13,0 0.215,-0.13 0.13,-0.258 l -6.07,-9.686 z m 23.246,-10.03 c 0,-0.646 -0.516,-1.163 -1.205,-1.163 h -1.42 v 3.789 h 0.688 v -1.507 h 0.474 l 0.774,1.507 h 0.775 l -0.86,-1.593 c 0.473,-0.13 0.774,-0.474 0.774,-1.033 z m -1.291,0.602 h -0.646 v -1.162 h 0.646 c 0.387,0 0.602,0.258 0.602,0.56 a 0.588,0.588 0 0 1 -0.602,0.602 z M 83.12,96.086 h -1.292 c -1.334,0 -1.808,-0.646 -1.808,-1.894 V 79.814 a 3.16,3.16 0 0 0 -3.142,-3.142 0.185,0.185 0 0 0 -0.172,0.172 V 94.88 c 0,2.41 1.377,4.52 4.477,4.52 h 1.894 a 0.185,0.185 0 0 0 0.172,-0.172 v -2.97 c 0,-0.087 -0.043,-0.173 -0.13,-0.173 z m 87.344,-19.414 c -1.938,0 -3.53,1.592 -3.487,3.53 0,1.937 1.592,3.53 3.53,3.486 1.937,0 3.53,-1.592 3.486,-3.53 0,-1.937 -1.592,-3.486 -3.53,-3.486 z m 0,6.37 c -1.593,0 -2.799,-1.248 -2.799,-2.84 0,-1.593 1.249,-2.885 2.799,-2.885 1.55,0 2.798,1.249 2.798,2.842 0,1.635 -1.206,2.884 -2.798,2.884 z m -8.18,0.259 c -4.218,0 -6.93,3.013 -6.93,8.136 0,6.07 3.271,8.136 7.361,8.136 2.238,0 3.702,-0.517 5.037,-1.507 0.086,-0.043 0.086,-0.172 0,-0.215 0,0 -1.507,-1.42 -1.851,-1.765 a 0.13,0.13 0 0 0 -0.173,0 c -0.775,0.517 -1.635,0.775 -2.927,0.775 -2.669,0 -4.176,-1.722 -4.176,-4.434 h 10.461 a 0.185,0.185 0 0 0 0.172,-0.172 v -1.291 c -0.043,-4.52 -2.583,-7.663 -6.973,-7.663 z m -3.615,6.802 c 0.043,-0.947 0.086,-1.421 0.43,-2.153 0.517,-1.162 1.679,-1.98 3.229,-1.98 1.55,0 2.669,0.818 3.185,1.98 0.301,0.732 0.43,1.206 0.43,2.153 z M 93.882,83.3 c -1.507,0 -2.927,0.43 -4.004,1.507 -0.086,0.086 -0.258,0.043 -0.258,-0.13 V 83.86 a 0.185,0.185 0 0 0 -0.172,-0.173 h -3.013 a 0.185,0.185 0 0 0 -0.173,0.173 v 15.41 c 0,0.087 0.086,0.173 0.173,0.173 h 3.013 A 0.185,0.185 0 0 0 89.62,99.271 V 90.49 c 0,-2.54 1.55,-4.219 3.4,-4.219 1.852,0 3.316,1.077 3.316,3.66 v 9.34 c 0,0.087 0.086,0.173 0.172,0.173 h 3.142 v -9.987 c 0,-1.851 -0.43,-3.4 -1.679,-4.606 -0.99,-0.99 -2.41,-1.55 -4.09,-1.55 z m 29.875,0.387 h -3.186 c -0.043,0 -0.129,0.044 -0.129,0.087 l -3.616,10.503 -3.616,-10.503 c -0.043,-0.043 -0.086,-0.087 -0.129,-0.087 h -3.185 c -0.13,0 -0.173,0.13 -0.13,0.216 l 5.295,15.368 v 0.086 l -0.645,1.85 c -0.474,1.335 -0.947,1.766 -2.368,1.766 h -0.344 c -0.087,0 -0.173,0.086 -0.13,0.172 l 0.43,3.013 c 0,0.086 0.087,0.13 0.13,0.13 h 0.517 c 1.248,0 2.496,-0.302 3.4,-1.206 0.474,-0.473 0.861,-1.12 1.033,-1.636 l 6.759,-19.543 c 0.086,-0.086 0,-0.216 -0.086,-0.216 z m -14.378,12.398 h -1.291 c -1.335,0 -1.765,-0.646 -1.765,-1.894 V 79.814 a 3.16,3.16 0 0 0 -3.143,-3.142 0.185,0.185 0 0 0 -0.172,0.172 V 94.88 c 0,2.41 1.377,4.52 4.477,4.52 h 1.894 a 0.185,0.185 0 0 0 0.172,-0.172 v -3.014 c -0.043,-0.043 -0.086,-0.129 -0.172,-0.129 z"
         fill="#14af28"
         fill-rule="evenodd"
         data-name="logo-molnlycke-master-green"
         id="path220" />
    </g>
  </g>
</svg>
