<?xml version="1.0" encoding="UTF-8" standalone="no"?>
<!-- Created with Inkscape (http://www.inkscape.org/) -->

<svg
   width="23.220892mm"
   height="20.313219mm"
   viewBox="0 0 23.220892 20.313219"
   version="1.1"
   id="svg1"
   inkscape:version="1.3.2 (091e20ef0f, 2023-11-25)"
   sodipodi:docname="cycling.svg"
   xmlns:inkscape="http://www.inkscape.org/namespaces/inkscape"
   xmlns:sodipodi="http://sodipodi.sourceforge.net/DTD/sodipodi-0.dtd"
   xmlns="http://www.w3.org/2000/svg"
   xmlns:svg="http://www.w3.org/2000/svg">
  <sodipodi:namedview
     id="namedview1"
     pagecolor="#ffffff"
     bordercolor="#000000"
     borderopacity="0.25"
     inkscape:showpageshadow="2"
     inkscape:pageopacity="0.0"
     inkscape:pagecheckerboard="0"
     inkscape:deskcolor="#d1d1d1"
     inkscape:document-units="mm"
     inkscape:zoom="0.44186308"
     inkscape:cx="-202.55144"
     inkscape:cy="-13.578867"
     inkscape:window-width="1366"
     inkscape:window-height="700"
     inkscape:window-x="0"
     inkscape:window-y="0"
     inkscape:window-maximized="1"
     inkscape:current-layer="layer1" />
  <defs
     id="defs1" />
  <g
     inkscape:label="Layer 1"
     inkscape:groupmode="layer"
     id="layer1"
     transform="translate(-158.22081,-152.13544)">
    <g
       data-name="Parapharmacie Icones-02"
       id="g108"
       transform="matrix(0.26458333,0,0,0.26458333,-44.450016,-993.24526)">
      <path
         d="m 853.764,4367.382 h -5.454 c -0.211,10.472 -3.835,19.502 -11.141,26.966 -5.097,5.207 -11.205,8.779 -18.327,10.35 -14.875,3.286 -27.41,-1.037 -37.92,-11.992 l 6.33,-9.503 c 9.508,11.193 21.047,15.035 34.664,8.705 10.08,-4.689 14.861,-13.335 15.461,-24.512 h -5.566 l 10.955,-16.437 c 0.242,0.343 0.437,0.604 0.618,0.875 3.253,4.867 6.503,9.732 9.75,14.595 0.186,0.277 0.42,0.52 0.63,0.779 z"
         fill="#0078a5"
         fill-rule="evenodd"
         data-name="Tracé 42"
         id="path107" />
      <path
         d="m 838.79,4342.075 -6.329,9.5 c -9.342,-11.09 -20.691,-14.843 -34.228,-8.953 -10.513,4.582 -15.874,15.077 -15.768,24.721 h 5.475 L 776.944,4383.838 766,4367.43 h 5.418 c 0.213,-10.7 3.952,-19.853 11.489,-27.36 5.4,-5.379 11.867,-8.934 19.36,-10.309 14.396,-2.669 26.485,1.718 36.524,12.314 z"
         fill="#0078a5"
         fill-rule="evenodd"
         data-name="Tracé 43"
         id="path108" />
    </g>
  </g>
</svg>
