<?xml version="1.0" encoding="UTF-8" standalone="no"?>
<!-- Created with Inkscape (http://www.inkscape.org/) -->

<svg
   width="17.740824mm"
   height="23.22814mm"
   viewBox="0 0 17.740824 23.22814"
   version="1.1"
   id="svg1"
   inkscape:version="1.3.2 (091e20ef0f, 2023-11-25)"
   sodipodi:docname="drawing-1.svg"
   xmlns:inkscape="http://www.inkscape.org/namespaces/inkscape"
   xmlns:sodipodi="http://sodipodi.sourceforge.net/DTD/sodipodi-0.dtd"
   xmlns="http://www.w3.org/2000/svg"
   xmlns:svg="http://www.w3.org/2000/svg">
  <sodipodi:namedview
     id="namedview1"
     pagecolor="#ffffff"
     bordercolor="#000000"
     borderopacity="0.25"
     inkscape:showpageshadow="2"
     inkscape:pageopacity="0.0"
     inkscape:pagecheckerboard="0"
     inkscape:deskcolor="#d1d1d1"
     inkscape:document-units="mm"
     inkscape:zoom="0.44186308"
     inkscape:cx="32.815596"
     inkscape:cy="45.262891"
     inkscape:window-width="1366"
     inkscape:window-height="700"
     inkscape:window-x="0"
     inkscape:window-y="0"
     inkscape:window-maximized="1"
     inkscape:current-layer="layer1" />
  <defs
     id="defs1" />
  <g
     inkscape:label="Layer 1"
     inkscape:groupmode="layer"
     id="layer1"
     transform="translate(-96.308328,-136.78962)">
    <g
       data-name="Parapharmacie Icones-03"
       id="g110"
       transform="matrix(0.26458333,0,0,0.26458333,-189.70628,-1007.1363)">
      <path
         d="m 1113.787,4411.291 c -0.89,-0.366 -1.785,-0.72 -2.667,-1.102 -15.748,-6.833 -25.46,-18.635 -29.136,-35.406 -0.655,-3.017 -0.866,-6.185 -0.916,-9.273 -0.121,-8.458 -0.044,-16.918 -0.041,-25.379 0,-1.894 0.999,-2.89 2.902,-2.925 10.607,-0.197 19.684,-4.023 27.23,-11.478 0.458,-0.442 0.884,-0.895 1.336,-1.333 1.246,-1.21 2.646,-1.173 3.947,-0.014 2.259,2.012 4.423,4.163 6.872,5.92 5.64,4.05 12.016,6.24 18.95,6.76 0.995,0.076 1.996,0.108 2.995,0.147 1.567,0.06 2.641,1.102 2.644,2.664 0,9.118 0.396,18.257 -0.103,27.347 -1.05,19.104 -10.36,33.071 -27.4,41.82 -1.688,0.868 -3.493,1.508 -5.246,2.252 z m 0.687,-20.923 c 12.777,0 23.14,-10.356 23.147,-23.135 0.01,-12.782 -10.345,-23.15 -23.124,-23.164 -12.78,-0.014 -23.153,10.331 -23.175,23.11 0,12.791 10.36,23.168 23.152,23.19 z"
         fill="#0078a5"
         fill-rule="evenodd"
         data-name="Tracé 44"
         id="path109" />
      <path
         d="m 1114.515,4349.215 c 9.946,0.024 17.989,8.109 17.96,18.055 -0.028,9.946 -8.116,17.985 -18.062,17.953 -9.947,-0.033 -17.982,-8.124 -17.946,-18.07 0.05,-9.93 8.12,-17.949 18.048,-17.938 z m -3.521,22.948 -4.83,-4.89 c -0.71,-0.716 -1.546,-1.078 -2.556,-0.833 -2.018,0.488 -2.662,2.85 -1.166,4.38 2.135,2.188 4.314,4.332 6.476,6.49 1.42,1.416 2.82,1.418 4.243,0 a 1281.96,1281.96 0 0 0 5.576,-5.573 c 2.542,-2.54 5.087,-5.082 7.638,-7.627 0.733,-0.733 1.145,-1.578 0.873,-2.628 -0.516,-2.048 -2.882,-2.634 -4.451,-1.076 a 2893.83,2893.83 0 0 0 -11.031,11.021 c -0.213,0.218 -0.442,0.426 -0.772,0.736 z"
         fill="#0078a5"
         fill-rule="evenodd"
         data-name="Tracé 45"
         id="path110" />
    </g>
  </g>
</svg>
