<?xml version="1.0" encoding="UTF-8" standalone="no"?>
<!-- Created with Inkscape (http://www.inkscape.org/) -->

<svg
   width="18.14328mm"
   height="23.226463mm"
   viewBox="0 0 18.14328 23.226463"
   version="1.1"
   id="svg1"
   inkscape:version="1.3.2 (091e20ef0f, 2023-11-25)"
   sodipodi:docname="lock.svg"
   xmlns:inkscape="http://www.inkscape.org/namespaces/inkscape"
   xmlns:sodipodi="http://sodipodi.sourceforge.net/DTD/sodipodi-0.dtd"
   xmlns="http://www.w3.org/2000/svg"
   xmlns:svg="http://www.w3.org/2000/svg">
  <sodipodi:namedview
     id="namedview1"
     pagecolor="#ffffff"
     bordercolor="#000000"
     borderopacity="0.25"
     inkscape:showpageshadow="2"
     inkscape:pageopacity="0.0"
     inkscape:pagecheckerboard="0"
     inkscape:deskcolor="#d1d1d1"
     inkscape:document-units="mm"
     inkscape:zoom="0.44186308"
     inkscape:cx="-211.60401"
     inkscape:cy="4.5262891"
     inkscape:window-width="1366"
     inkscape:window-height="700"
     inkscape:window-x="0"
     inkscape:window-y="0"
     inkscape:window-maximized="1"
     inkscape:current-layer="layer1" />
  <defs
     id="defs1" />
  <g
     inkscape:label="Layer 1"
     inkscape:groupmode="layer"
     id="layer1"
     transform="translate(-160.86665,-147.37296)">
    <g
       data-name="Parapharmacie Icones-04"
       id="g113"
       transform="matrix(0.26458333,0,0,0.26458333,-199.76043,-996.55307)">
      <path
         d="m 1399.338,4323.502 c 1.787,0.342 3.608,0.564 5.356,1.047 11.565,3.207 19.702,13.833 19.846,25.84 0.037,3.225 0,6.45 0,9.697 l -11.743,-2.062 c 0,-0.23 -0.037,-0.532 -0.037,-0.834 0,-2.115 0.019,-4.227 0,-6.341 -0.093,-7.947 -5.498,-14.17 -13.349,-15.409 -8.066,-1.271 -16.221,4.603 -17.35,12.687 -0.367,2.64 -0.196,5.356 -0.264,8.037 -0.016,0.625 0,1.248 0,1.864 l -11.707,2.046 c 0,0 -0.057,-0.046 -0.057,-0.09 0.098,-4.76 -0.54,-9.57 0.483,-14.272 2.48,-11.362 9.46,-18.505 20.676,-21.502 1.315,-0.35 2.687,-0.479 4.032,-0.71 z"
         fill="#0078a5"
         fill-rule="evenodd"
         data-name="Tracé 46"
         id="path111" />
      <path
         d="m 1431.541,4386.802 c 0,6.174 -0.013,12.346 0.02,18.52 0,0.712 -0.228,0.978 -0.886,1.166 a 126.237,126.237 0 0 1 -23.193,4.332 c -14.804,1.356 -29.298,-0.303 -43.566,-4.328 -0.703,-0.197 -0.916,-0.488 -0.916,-1.22 0.026,-12.318 0.026,-24.636 0,-36.953 0,-0.783 0.259,-1.065 0.971,-1.27 11.865,-3.394 23.958,-5.071 36.297,-4.75 a 121.318,121.318 0 0 1 30.47,4.78 c 0.62,0.18 0.838,0.459 0.835,1.119 -0.043,6.201 -0.032,12.403 -0.032,18.604 z m -31.685,11.04 v -8.371 c 4.737,-1.833 6.288,-6.092 5.629,-9.594 -0.706,-3.746 -3.945,-6.527 -7.909,-6.756 -3.622,-0.213 -7.124,2.256 -8.263,5.844 a 8.05,8.05 0 0 0 0.122,5.377 c 0.943,2.52 2.778,4.176 5.269,5.11 v 8.388 z"
         fill="#0078a5"
         fill-rule="evenodd"
         data-name="Tracé 47"
         id="path112" />
      <path
         d="m 1397.306,4384.694 a 3.221,3.221 0 1 1 3.191,-3.25 3.267,3.267 0 0 1 -3.191,3.25 z"
         fill="#0078a5"
         fill-rule="evenodd"
         data-name="Tracé 48"
         id="path113" />
    </g>
  </g>
</svg>
