<?xml version="1.0" encoding="UTF-8" standalone="no"?>
<!-- Created with Inkscape (http://www.inkscape.org/) -->

<svg
   width="3.80285mm"
   height="3.802592mm"
   viewBox="0 0 3.80285 3.802592"
   version="1.1"
   id="svg1"
   inkscape:version="1.3.2 (091e20ef0f, 2023-11-25)"
   sodipodi:docname="phone.svg"
   xmlns:inkscape="http://www.inkscape.org/namespaces/inkscape"
   xmlns:sodipodi="http://sodipodi.sourceforge.net/DTD/sodipodi-0.dtd"
   xmlns="http://www.w3.org/2000/svg"
   xmlns:svg="http://www.w3.org/2000/svg">
  <sodipodi:namedview
     id="namedview1"
     pagecolor="#ffffff"
     bordercolor="#000000"
     borderopacity="0.25"
     inkscape:showpageshadow="2"
     inkscape:pageopacity="0.0"
     inkscape:pagecheckerboard="0"
     inkscape:deskcolor="#d1d1d1"
     inkscape:document-units="mm"
     inkscape:zoom="15.852611"
     inkscape:cx="5.2672711"
     inkscape:cy="3.5325411"
     inkscape:window-width="1366"
     inkscape:window-height="700"
     inkscape:window-x="0"
     inkscape:window-y="0"
     inkscape:window-maximized="1"
     inkscape:current-layer="layer1" />
  <defs
     id="defs1" />
  <g
     inkscape:label="Layer 1"
     inkscape:groupmode="layer"
     id="layer1"
     transform="translate(-103.45282,-49.017607)">
    <path
       d="m 107.25236,51.853851 v 0.56476 a 0.37985165,0.3765057 0 0 1 -0.41409,0.376767 c -0.5848,-0.06319 -1.14614,-0.2611 -1.63953,-0.578336 a 3.7047389,3.6721056 0 0 1 -1.13982,-1.129778 3.7597937,3.7266755 0 0 1 -0.58347,-1.632656 0.37985165,0.3765057 0 0 1 0.37828,-0.41045 h 0.56977 a 0.37985165,0.3765057 0 0 1 0.38012,0.323764 2.4392692,2.4177828 0 0 0 0.13302,0.529249 0.37985165,0.3765057 0 0 1 -0.0856,0.397395 l -0.2413,0.239167 a 3.0398668,3.0130901 0 0 0 1.13983,1.129778 l 0.24129,-0.239168 c 0.10543,-0.103394 0.2621,-0.136555 0.40093,-0.0846 a 2.4392692,2.4177828 0 0 0 0.53395,0.131593 0.37985165,0.3765057 0 0 1 0.32663,0.382511 z"
       fill-rule="evenodd"
       data-name="Icon feather-phone"
       id="path246"
       style="stroke-width:0.262257" />
  </g>
</svg>
